HIERARCHY
ROOT Hips
{
  OFFSET 90.7885 88.945 -76.2838
  CHANNELS 6 Xposition Yposition Zposition Zrotation Xrotation Yrotation
  JOINT LeftUpLeg
  {
    OFFSET 8.64259 1.95398 -2.38835
    CHANNELS 3 Zrotation Xrotation Yrotation
    JOINT LeftLeg
    {
      OFFSET 43.7702 0 0
      CHANNELS 3 Zrotation Xrotation Yrotation
      JOINT LeftFoot
      {
        OFFSET 40.6238 0 0
        CHANNELS 3 Zrotation Xrotation Yrotation
        JOINT LeftToeBase
        {
          OFFSET 12.7242 0 0
          CHANNELS 3 Zrotation Xrotation Yrotation
          End Site
          {
            OFFSET 0 0 0
          }
        }
      }
    }
  }
  JOINT RightUpLeg
  {
    OFFSET -8.2249 1.95398 -2.59336
    CHANNELS 3 Zrotation Xrotation Yrotation
    JOINT RightLeg
    {
      OFFSET 43.5653 0 0
      CHANNELS 3 Zrotation Xrotation Yrotation
      JOINT RightFoot
      {
        OFFSET 40.6238 0 0
        CHANNELS 3 Zrotation Xrotation Yrotation
        JOINT RightToeBase
        {
          OFFSET 12.7242 0 0
          CHANNELS 3 Zrotation Xrotation Yrotation
          End Site
          {
            OFFSET 0 0 0
          }
        }
      }
    }
  }
  JOINT Spine
  {
    OFFSET 0.165834 0.87714 6.61349
    CHANNELS 3 Zrotation Xrotation Yrotation
    JOINT Spine1
    {
      OFFSET 7.38963 1.71661e-005 0
      CHANNELS 3 Zrotation Xrotation Yrotation
      JOINT Spine2
      {
        OFFSET 11.9445 1.14441e-005 0
        CHANNELS 3 Zrotation Xrotation Yrotation
        JOINT Spine3
        {
          OFFSET 14.7254 4.19617e-005 0
          CHANNELS 3 Zrotation Xrotation Yrotation
          JOINT Spine4
          {
            OFFSET 10.9679 0 0
            CHANNELS 3 Zrotation Xrotation Yrotation
            JOINT RightShoulder
            {
              OFFSET 2.46616 -1.6653 3.69651
              CHANNELS 3 Zrotation Xrotation Yrotation
              JOINT RightArm
              {
                OFFSET 13.0012 0 0
                CHANNELS 3 Zrotation Xrotation Yrotation
                JOINT RightForeArm
                {
                  OFFSET 28.7848 1.52588e-005 0
                  CHANNELS 3 Zrotation Xrotation Yrotation
                  JOINT RightHand
                  {
                    OFFSET 26.5688 1.52588e-005 0
                    CHANNELS 3 Zrotation Xrotation Yrotation
                    End Site
                    {
                      OFFSET 0 0 0
                    }
                  }
                }
              }
            }
            JOINT LeftShoulder
            {
              OFFSET 2.38034 -1.29275 -3.7523
              CHANNELS 3 Zrotation Xrotation Yrotation
              JOINT LeftArm
              {
                OFFSET 16.3182 6.10352e-005 0
                CHANNELS 3 Zrotation Xrotation Yrotation
                JOINT LeftForeArm
                {
                  OFFSET 27.0901 0 0
                  CHANNELS 3 Zrotation Xrotation Yrotation
                  JOINT LeftHand
                  {
                    OFFSET 24.5451 1.52588e-005 0
                    CHANNELS 3 Zrotation Xrotation Yrotation
                    End Site
                    {
                      OFFSET 0 0 0
                    }
                  }
                }
              }
            }
            JOINT Neck
            {
              OFFSET 5.0226 -0.0266342 0
              CHANNELS 3 Zrotation Xrotation Yrotation
              JOINT Head
              {
                OFFSET 6.69363 2.86102e-005 0
                CHANNELS 3 Zrotation Xrotation Yrotation
                End Site
                {
                  OFFSET 0 0 0
                }
              }
            }
          }
        }
      }
    }
  }
}
MOTION
Frames:	10
Frame Time:	0.0416667
18.9012 91.5941 40.1211 83.8222 -47.6746 89.1233 -168.01 -5.59271 89.911 -79.0422 0.487168 0.523305 54.1335 -2.21167 4.13445 28.7207 4.51279 -6.56984 178.509 37.8817 96.4234 -36.2271 -15.8048 -1.17995 66.1368 -3.42204 0.193051 20.4291 0.0937482 1.51801 -0.725262 7.76499 -91.178 11.3209 -1.99219 -2.14709 -0.350167 -2.08472 -2.05736 -22.8769 -1.25504 -2.6463 -2.86422 -1.25505 -2.64631 89.2833 -26.0813 -109.853 7.50399 -7.7675 -22.434 10.1448 7.10189 -70.2045 -24.4092 2.09315 -11.7471 -92.3461 -51.064 75.4985 -1.99668 -0.896932 -39.1088 64.9401 32.0047 -75.044 -14.4605 9.51984 -81.2572 18.6397 9.79532 3.99991 -12.3163 8.18989 1.36447 
24.2046 90.1132 45.1883 84.894 -46.6587 89.2644 -165.305 0.602479 88.9861 -91.5496 -7.07006 2.14539 58.709 -0.0908607 5.39815 27.0624 5.55068 -7.53981 177.541 38.8063 95.804 -47.4423 -17.9383 -0.953842 69.9547 -5.37464 -2.93014 7.91257 -0.984488 4.98945 -0.462173 7.84611 -91.0729 11.1649 -1.41842 -1.99725 -0.506735 -1.50495 -1.93291 -23.0317 -0.752782 -2.33103 -3.01908 -0.752775 -2.33103 89.2866 -24.6754 -110.503 6.41828 -5.29315 -23.3389 11.5559 6.67242 -69.5572 -26.5885 2.0673 -10.9864 -93.0278 -52.2208 74.7933 -0.262885 -0.231766 -42.715 46.8434 26.1556 -64.0211 -20.5803 13.4376 -77.5008 18.5015 8.75041 5.44891 -10.7436 6.86264 -0.0454723 
28.8868 87.6571 50.107 84.6068 -45.9366 90.6828 -163.952 12.2551 93.6071 -104.568 -7.89802 4.6144 62.3606 0.987355 6.59663 24.4854 7.08919 -8.78121 177.169 38.7646 97.5391 -57.0087 -14.3702 -0.423895 79.6603 -10.4926 -2.01431 16.7838 -0.203638 2.70172 -0.0500785 7.95248 -91.2168 10.9559 -0.662918 -2.3579 -0.716907 -0.766006 -2.32647 -23.2349 0.0761507 -2.44808 -3.22225 0.0761653 -2.44808 89.3848 -23.7492 -110.735 5.01748 -1.85065 -25.0481 12.5313 7.31948 -68.7042 -26.3291 1.86537 -10.0869 -93.379 -53.2018 74.5364 0.733841 0.214809 -46.238 26.8468 13.0257 -55.5238 -29.3369 16.3441 -66.9217 20.8303 7.65114 6.30916 -10.1887 5.42762 -0.537546 
33.2531 86.47 55.1309 84.5204 -44.2448 92.6606 -165.262 25.1995 93.4362 -114.371 0.378063 6.63106 62.9271 1.54402 11.7715 21.608 9.74515 -11.214 174.752 34.9236 99.5893 -60.4003 -12.8785 0.724211 87.9405 -14.6426 -1.96641 14.4013 -1.56675 5.34701 0.258959 8.0573 -91.3725 10.75 -0.117291 -2.71843 -0.923798 -0.236757 -2.71065 -23.4372 0.704844 -2.62815 -3.42452 0.704865 -2.62814 89.2188 -23.7995 -111.066 3.19824 0.181937 -26.5008 19.1808 12.6397 -68.475 -28.6389 1.66401 -8.14266 -93.5694 -52.3053 74.0327 -0.290356 -0.0650343 -48.931 7.45343 -3.95569 -49.524 -28.5806 10.2405 -44.9248 23.646 6.20338 5.57957 -10.861 4.0701 -0.205707 
38.7594 85.7317 60.6397 85.0292 -41.6167 92.4074 -168.213 34.7626 91.7017 -118.752 6.01977 7.40008 65.9917 3.33405 13.2009 21.159 12.0133 -13.8602 173.447 28.7159 98.168 -61.7371 -11.67 1.13694 95.2509 -17.2718 0.558907 16.4223 -0.378458 3.03325 0.33072 8.16627 -91.3395 10.5342 0.0437326 -2.66606 -1.13948 -0.0736226 -2.66542 -23.6543 0.842708 -2.52984 -3.64166 0.842697 -2.52985 89.44 -21.4908 -111.756 3.92679 4.15191 -26.3765 16.5375 8.6004 -65.2285 -27.4762 2.05892 -10.1523 -92.4975 -52.8983 75.7271 0.0603551 1.21501 -51.9412 -5.40862 -16.1823 -48.8552 -22.1998 4.54111 -30.4248 25.8342 5.48421 7.2046 -12.0911 2.82084 -2.01099 
44.6876 85.2282 66.5382 85.705 -38.6779 91.2749 -170.86 42.4387 88.9942 -118.592 7.06684 7.43179 69.7548 5.10589 11.9507 24.1595 11.4947 -14.427 172.785 20.7167 96.2986 -60.6166 -8.39742 1.16821 102.743 -20.4313 1.50542 15.8295 -1.27939 4.71798 0.442938 8.19381 -91.1045 10.4855 0.37543 -2.22872 -1.18729 0.277022 -2.24307 -23.7099 1.02778 -2.013 -3.69723 1.02776 -2.01301 89.212 -21.8889 -112.056 4.90013 7.13644 -25.0654 15.8797 7.82486 -63.556 -26.6597 2.26179 -11.2018 -92.028 -51.3758 76.0415 -2.85488 2.83062 -53.3839 -10.9717 -21.4163 -48.76 -13.0474 1.31532 -19.6709 25.4146 3.13795 6.36002 -11.467 0.906694 -2.29677 
50.8678 85.9063 72.5704 84.741 -37.0974 87.865 -169.558 49.082 83.7628 -113.086 4.96999 6.64039 72.1366 6.17636 9.92838 28.1359 7.72313 -10.963 171.653 13.7479 93.2863 -56.9101 -11.171 1.02602 101.104 -20.5344 -1.44962 21.0395 -1.40868 4.32361 0.609434 8.01985 -90.6696 10.8391 0.904147 -1.41872 -0.832371 0.840844 -1.45714 -23.3661 1.2887 -1.08145 -3.35346 1.28872 -1.08145 88.2989 -23.6449 -113.132 6.0326 9.12116 -23.3155 16.3009 8.88042 -61.9622 -25.6287 2.26743 -11.3177 -91.5632 -51.6364 76.7828 -1.08622 5.68909 -54.487 -15.1461 -24.8597 -49.0225 -9.69404 0.616647 -15.9019 23.596 0.754008 4.69934 -10.3972 -0.720697 -2.35555 
57.5324 87.4441 79.1251 84.8823 -36.3941 85.6728 -167.825 51.9374 80.0528 -104.21 3.03927 5.26095 75.2299 7.35124 7.95297 28.0791 6.02928 -8.54658 171.22 4.94991 92.2178 -50.2825 -13.5839 0.39993 92.7262 -17.8302 -6.75887 29.4647 -2.90692 6.86524 0.851679 7.93025 -90.2628 11.0186 1.57374 -0.673152 -0.651644 1.54258 -0.741779 -23.1943 1.70328 -0.168933 -3.18164 1.70328 -0.168934 87.7815 -25.3256 -113.356 8.91858 10.5557 -22.0971 16.5912 10.7455 -61.2625 -25.053 2.33651 -11.5048 -90.5314 -51.3788 78.2386 1.18141 8.82949 -54.9557 -17.7843 -26.8213 -49.0345 -4.46885 0.0998955 -12.5705 22.1342 -1.5643 1.95498 -10.2588 -2.07823 -1.13463 
64.4888 89.4031 86.0863 86.5582 -36.2227 85.0027 -167.629 51.6575 78.9491 -93.1326 2.58221 3.27201 76.5908 7.66848 6.10285 29.8174 5.60856 -8.51742 171.782 -4.72279 90.7481 -41.9236 -12.15 -1.10098 80.8411 -11.1313 -7.34603 37.712 -4.49767 10.877 1.14412 7.95992 -89.9143 10.9564 2.31747 -0.0495554 -0.712488 2.31304 -0.151574 -23.2633 2.22517 0.649582 -3.25067 2.22515 0.649569 86.7196 -27.2481 -114.548 11.5823 13.4161 -19.472 13.2 6.27621 -59.527 -23.4972 2.56894 -13.8123 -89.483 -50.5881 79.6217 3.10466 12.3507 -53.8977 -19.3103 -26.8332 -50.3848 -2.289 -0.0962191 -12.1707 20.455 -3.67824 0.163528 -10.4483 -3.47213 -1.86135 
71.6493 91.6314 93.1712 86.6483 -36.4717 83.2064 -168.064 50.3683 78.4834 -79.4906 3.21968 0.444492 77.7882 8.04135 4.34055 28.5699 6.39247 -9.22504 172.198 -12.1493 89.5957 -33.9196 -14.254 -3.39285 65.8234 -2.44731 -5.30307 38.8811 -4.21966 10.1357 1.57654 7.82878 -89.502 11.2081 3.36926 0.660383 -0.458524 3.39506 0.511284 -23.0218 3.01492 1.64328 -3.00913 3.01492 1.64327 86.1191 -29.314 -114.694 14.5712 14.543 -16.0665 15.5052 8.38991 -59.4263 -24.6489 2.93216 -14.361 -89.1006 -48.6862 79.8083 6.8043 16.7846 -54.5775 -21.4654 -28.6685 -50.0483 -2.4702 -0.0804869 -13.8263 19.306 -6.61606 -3.30337 -12.0515 -5.27742 -1.32233 
